<svg width="276" height="276" viewBox="0 0 276 276" fill="none" xmlns="http://www.w3.org/2000/svg">
<g filter="url(#filter0_d_401_1063)">
<circle cx="138" cy="134" r="128" fill="#9747FF"/>
</g>
<circle cx="51" cy="144" r="24" fill="#F7C5FF"/>
<circle cx="181" cy="214" r="28" fill="#F7C5FF"/>
<circle cx="87" cy="214" r="12" fill="#F7C5FF"/>
<circle cx="106" cy="41" r="12" fill="#F7C5FF"/>
<circle cx="220" cy="85" r="18" fill="#F7C5FF"/>
<path d="M144.864 78.496C143.46 98.932 133.632 113.44 111.636 122.8C109.296 123.892 107.892 125.764 107.892 128.104C107.892 129.04 108.204 129.976 108.672 130.912C109.764 133.096 111.48 134.344 113.664 134.344C114.6 134.344 115.692 134.188 116.784 133.564C142.68 122.332 154.848 103.456 157.188 78.496H187.452C191.352 78.496 192.756 79.9 192.756 83.8C192.6 93.316 191.352 103.144 189.792 109.384C188.388 114.844 186.516 116.248 179.184 116.248C174.66 116.248 169.668 115.78 166.548 115C166.08 114.844 165.612 114.844 165.3 114.844C162.648 114.844 160.464 116.56 159.996 119.368C159.84 119.836 159.84 120.304 159.84 120.772C159.84 123.58 161.556 125.764 164.52 126.232C169.044 127.012 174.816 127.636 180.276 127.636C192.756 127.636 198.84 123.892 201.024 114.376C203.364 104.548 204.612 93.16 204.768 80.836C204.924 72.88 200.4 67.42 190.572 67.42H117.564C114.6 67.42 113.196 69.76 113.196 73.036C113.196 76.156 114.6 78.496 117.564 78.496H144.864ZM129.42 139.804C120.372 139.804 116.472 143.236 116.472 151.816V190.348C116.472 198.928 120.372 202.516 129.42 202.516H189.948C198.84 202.516 202.74 198.928 202.74 190.348V151.816C202.74 143.236 198.84 139.804 189.948 139.804H129.42ZM133.008 191.284C130.044 191.284 128.484 190.504 128.484 187.228V155.092C128.484 151.66 130.044 150.88 133.008 150.88H186.204C189.168 150.88 190.728 151.66 190.728 155.092V187.228C190.728 190.504 189.168 191.284 186.204 191.284H133.008ZM104.772 81.772C98.688 75.844 90.888 69.604 84.492 65.392C83.244 64.612 81.84 64.144 80.592 64.144C78.72 64.144 76.848 64.924 75.756 66.484C74.664 67.576 74.196 68.98 74.196 70.384C74.196 72.1 74.976 73.66 76.38 74.596C83.244 79.276 90.42 85.048 96.348 90.664C97.752 92.068 99.156 92.692 100.716 92.692C102.276 92.692 103.836 91.912 105.24 90.352C106.332 89.26 106.8 87.856 106.8 86.296C106.8 84.736 106.176 83.176 104.772 81.772ZM76.224 104.236C74.976 103.612 73.728 103.3 72.636 103.3C70.764 103.3 69.204 104.08 67.956 105.64C67.02 106.888 66.552 108.136 66.552 109.54C66.552 111.256 67.332 112.816 69.048 113.752C75.756 117.808 83.088 123.424 88.86 128.572C90.108 129.664 91.668 130.288 93.072 130.288C94.788 130.288 96.504 129.508 97.752 127.792C98.844 126.544 99.312 125.296 99.312 124.048C99.312 122.488 98.532 120.928 97.128 119.68C91.2 114.22 83.244 108.292 76.224 104.236ZM97.284 149.164C96.348 148.852 95.568 148.696 94.788 148.696C92.448 148.696 90.576 149.944 89.64 152.44C84.804 165.856 76.848 182.236 68.736 193.78C67.956 194.872 67.644 196.12 67.644 197.212C67.644 199.084 68.736 200.956 70.452 202.204C71.856 202.828 73.26 203.296 74.508 203.296C76.536 203.296 78.408 202.36 79.656 200.644C88.08 188.164 95.88 170.536 101.028 156.964C101.34 156.184 101.496 155.248 101.496 154.624C101.496 152.284 100.092 150.256 97.284 149.164Z" fill="black"/>
<path d="M144.864 78.496L148.855 78.7702L149.148 74.496H144.864V78.496ZM111.636 122.8L110.07 119.119L110.007 119.146L109.944 119.175L111.636 122.8ZM108.672 130.912L112.25 129.123L112.25 129.123L108.672 130.912ZM116.784 133.564L115.192 129.894L114.99 129.982L114.799 130.091L116.784 133.564ZM157.188 78.496V74.496H153.545L153.205 78.1226L157.188 78.496ZM192.756 83.8L196.755 83.8656L196.756 83.8328V83.8H192.756ZM189.792 109.384L193.666 110.38L193.669 110.367L193.673 110.354L189.792 109.384ZM166.548 115L165.283 118.795L165.429 118.843L165.578 118.881L166.548 115ZM159.996 119.368L163.791 120.633L163.89 120.335L163.942 120.026L159.996 119.368ZM164.52 126.232L165.2 122.29L165.172 122.285L165.144 122.281L164.52 126.232ZM201.024 114.376L197.133 113.45L197.129 113.465L197.125 113.481L201.024 114.376ZM204.768 80.836L200.769 80.7576L200.769 80.7715L200.768 80.7854L204.768 80.836ZM104.772 81.772L107.6 78.9436L107.582 78.9252L107.563 78.9071L104.772 81.772ZM84.492 65.392L86.692 62.0513L86.6523 62.0252L86.612 62L84.492 65.392ZM75.756 66.484L78.5844 69.3124L78.8321 69.0648L79.0329 68.7778L75.756 66.484ZM76.38 74.596L78.6333 71.2911L78.6161 71.2793L78.5988 71.2678L76.38 74.596ZM96.348 90.664L99.1764 87.8356L99.1382 87.7974L99.099 87.7602L96.348 90.664ZM105.24 90.352L102.412 87.5236L102.337 87.5979L102.267 87.6761L105.24 90.352ZM76.224 104.236L78.2251 100.773L78.1207 100.712L78.0129 100.658L76.224 104.236ZM67.956 105.64L64.8325 103.141L64.7935 103.19L64.756 103.24L67.956 105.64ZM69.048 113.752L71.1177 110.329L71.0415 110.283L70.9634 110.24L69.048 113.752ZM88.86 128.572L86.1975 131.557L86.2117 131.57L86.226 131.582L88.86 128.572ZM97.752 127.792L94.7417 125.158L94.623 125.294L94.5171 125.439L97.752 127.792ZM97.128 119.68L94.4181 122.622L94.4441 122.646L94.4705 122.67L97.128 119.68ZM97.284 149.164L98.7338 145.436L98.6422 145.4L98.5489 145.369L97.284 149.164ZM89.64 152.44L85.8947 151.036L85.8857 151.059L85.877 151.084L89.64 152.44ZM68.736 193.78L71.9909 196.105L71.9999 196.092L72.0088 196.08L68.736 193.78ZM70.452 202.204L68.0993 205.439L68.4412 205.688L68.8274 205.859L70.452 202.204ZM79.656 200.644L82.8909 202.997L82.9322 202.94L82.9714 202.882L79.656 200.644ZM101.028 156.964L97.3141 155.478L97.3008 155.512L97.288 155.545L101.028 156.964ZM140.873 78.2218C140.212 87.8482 137.592 95.8167 132.744 102.439C127.886 109.074 120.579 114.648 110.07 119.119L113.202 126.481C124.689 121.592 133.294 115.232 139.2 107.164C145.116 99.0833 148.112 89.5798 148.855 78.7702L140.873 78.2218ZM109.944 119.175C106.526 120.77 103.892 123.876 103.892 128.104H111.892C111.892 127.652 112.066 127.013 113.328 126.425L109.944 119.175ZM103.892 128.104C103.892 129.914 104.49 131.492 105.094 132.701L112.25 129.123C111.918 128.46 111.892 128.166 111.892 128.104H103.892ZM105.094 132.701C106.701 135.914 109.632 138.344 113.664 138.344V130.344C113.376 130.344 113.203 130.275 113.047 130.166C112.862 130.037 112.561 129.746 112.25 129.123L105.094 132.701ZM113.664 138.344C115.053 138.344 116.891 138.11 118.769 137.037L114.799 130.091C114.493 130.266 114.147 130.344 113.664 130.344V138.344ZM118.376 137.234C131.881 131.376 142.02 123.425 149.08 113.496C156.134 103.573 159.948 91.9072 161.171 78.8694L153.205 78.1226C152.088 90.0448 148.648 100.297 142.559 108.86C136.476 117.417 127.583 124.52 115.192 129.894L118.376 137.234ZM157.188 82.496H187.452V74.496H157.188V82.496ZM187.452 82.496C188.216 82.496 188.636 82.5682 188.836 82.625C189.001 82.6716 188.896 82.672 188.738 82.5139C188.58 82.3558 188.58 82.2512 188.627 82.4157C188.684 82.6164 188.756 83.0362 188.756 83.8H196.756C196.756 81.5566 196.392 78.8542 194.395 76.8571C192.398 74.86 189.695 74.496 187.452 74.496V82.496ZM188.757 83.7344C188.604 93.0149 187.382 102.53 185.911 108.414L193.673 110.354C195.322 103.758 196.596 93.6171 196.755 83.8656L188.757 83.7344ZM185.918 108.388C185.262 110.94 184.749 111.365 184.502 111.529C184.036 111.838 182.847 112.248 179.184 112.248V120.248C182.853 120.248 186.266 119.956 188.92 118.198C191.793 116.295 192.918 113.288 193.666 110.38L185.918 108.388ZM179.184 112.248C174.836 112.248 170.202 111.79 167.518 111.119L165.578 118.881C169.134 119.77 174.484 120.248 179.184 120.248V112.248ZM167.813 111.205C166.655 110.819 165.581 110.844 165.3 110.844V118.844C165.341 118.844 165.369 118.844 165.396 118.844C165.422 118.844 165.442 118.845 165.458 118.845C165.491 118.846 165.504 118.847 165.503 118.847C165.503 118.847 165.483 118.845 165.447 118.838C165.412 118.832 165.355 118.819 165.283 118.795L167.813 111.205ZM165.3 110.844C160.749 110.844 156.849 113.918 156.05 118.71L163.942 120.026C164.027 119.515 164.229 119.26 164.39 119.126C164.561 118.983 164.848 118.844 165.3 118.844V110.844ZM156.201 118.103C155.808 119.282 155.84 120.394 155.84 120.772H163.84C163.84 120.712 163.84 120.664 163.84 120.617C163.84 120.572 163.841 120.536 163.842 120.504C163.843 120.441 163.845 120.411 163.846 120.402C163.847 120.388 163.84 120.484 163.791 120.633L156.201 118.103ZM155.84 120.772C155.84 123.001 156.53 125.189 158.001 126.946C159.481 128.716 161.556 129.814 163.896 130.183L165.144 122.281C164.52 122.182 164.255 121.954 164.136 121.813C164.008 121.659 163.84 121.351 163.84 120.772H155.84ZM163.84 130.174C168.541 130.984 174.545 131.636 180.276 131.636V123.636C175.087 123.636 169.547 123.04 165.2 122.29L163.84 130.174ZM180.276 131.636C186.813 131.636 192.356 130.676 196.652 127.953C201.125 125.118 203.663 120.757 204.923 115.271L197.125 113.481C196.201 117.511 194.605 119.78 192.37 121.196C189.958 122.724 186.219 123.636 180.276 123.636V131.636ZM204.915 115.302C207.338 105.126 208.609 93.4346 208.768 80.8866L200.768 80.7854C200.615 92.8854 199.39 103.97 197.133 113.45L204.915 115.302ZM208.767 80.9144C208.86 76.1761 207.556 71.6577 204.254 68.3278C200.952 64.9979 196.21 63.42 190.572 63.42V71.42C194.762 71.42 197.196 72.5721 198.574 73.9612C199.952 75.3503 200.832 77.5399 200.769 80.7576L208.767 80.9144ZM190.572 63.42H117.564V71.42H190.572V63.42ZM117.564 63.42C114.881 63.42 112.551 64.5554 111.031 66.6506C109.64 68.5673 109.196 70.9077 109.196 73.036H117.196C117.196 71.8883 117.454 71.4207 117.506 71.3484C117.512 71.3398 117.475 71.3875 117.401 71.424C117.332 71.4579 117.358 71.42 117.564 71.42V63.42ZM109.196 73.036C109.196 75.1216 109.655 77.4262 111.053 79.3154C112.572 81.3673 114.887 82.496 117.564 82.496V74.496C117.358 74.496 117.327 74.4582 117.388 74.4881C117.454 74.5202 117.489 74.5629 117.484 74.5566C117.439 74.4958 117.196 74.0704 117.196 73.036H109.196ZM117.564 82.496H144.864V74.496H117.564V82.496ZM129.42 135.804C124.537 135.804 120.059 136.702 116.85 139.644C113.557 142.662 112.472 147.011 112.472 151.816H120.472C120.472 148.041 121.337 146.384 122.256 145.541C123.259 144.622 125.255 143.804 129.42 143.804V135.804ZM112.472 151.816V190.348H120.472V151.816H112.472ZM112.472 190.348C112.472 195.155 113.557 199.519 116.821 202.571C120.021 205.564 124.5 206.516 129.42 206.516V198.516C125.292 198.516 123.297 197.674 122.285 196.728C121.337 195.841 120.472 194.121 120.472 190.348H112.472ZM129.42 206.516H189.948V198.516H129.42V206.516ZM189.948 206.516C194.805 206.516 199.247 205.558 202.424 202.558C205.655 199.509 206.74 195.155 206.74 190.348H198.74C198.74 194.121 197.875 195.851 196.933 196.741C195.937 197.68 193.983 198.516 189.948 198.516V206.516ZM206.74 190.348V151.816H198.74V190.348H206.74ZM206.74 151.816C206.74 147.011 205.655 142.673 202.395 139.656C199.208 136.708 194.768 135.804 189.948 135.804V143.804C194.02 143.804 195.976 144.616 196.962 145.529C197.875 146.373 198.74 148.041 198.74 151.816H206.74ZM189.948 135.804H129.42V143.804H189.948V135.804ZM133.008 187.284C132.722 187.284 132.49 187.274 132.301 187.258C132.112 187.242 131.988 187.221 131.913 187.205C131.761 187.171 131.899 187.175 132.123 187.353C132.236 187.442 132.335 187.549 132.414 187.662C132.491 187.772 132.526 187.857 132.537 187.886C132.546 187.913 132.532 187.882 132.516 187.77C132.499 187.658 132.484 187.482 132.484 187.228H124.484C124.484 189.409 125.003 191.913 127.146 193.616C129.048 195.128 131.403 195.284 133.008 195.284V187.284ZM132.484 187.228V155.092H124.484V187.228H132.484ZM132.484 155.092C132.484 154.811 132.5 154.61 132.519 154.474C132.538 154.339 132.557 154.287 132.554 154.296C132.549 154.308 132.522 154.38 132.453 154.484C132.38 154.591 132.285 154.699 132.172 154.791C131.943 154.979 131.791 154.989 131.929 154.958C131.998 154.942 132.118 154.922 132.305 154.906C132.491 154.89 132.722 154.88 133.008 154.88V146.88C131.409 146.88 129.015 147.033 127.097 148.607C124.974 150.349 124.484 152.889 124.484 155.092H132.484ZM133.008 154.88H186.204V146.88H133.008V154.88ZM186.204 154.88C186.49 154.88 186.721 154.89 186.907 154.906C187.094 154.922 187.214 154.942 187.283 154.958C187.421 154.989 187.269 154.979 187.04 154.791C186.927 154.699 186.832 154.591 186.759 154.484C186.69 154.38 186.663 154.308 186.658 154.296C186.655 154.287 186.674 154.339 186.693 154.474C186.712 154.61 186.728 154.811 186.728 155.092H194.728C194.728 152.889 194.238 150.349 192.115 148.607C190.197 147.033 187.803 146.88 186.204 146.88V154.88ZM186.728 155.092V187.228H194.728V155.092H186.728ZM186.728 187.228C186.728 187.482 186.713 187.658 186.696 187.77C186.68 187.882 186.666 187.913 186.675 187.887C186.686 187.857 186.721 187.772 186.798 187.662C186.877 187.549 186.976 187.442 187.089 187.353C187.313 187.175 187.451 187.171 187.299 187.205C187.224 187.221 187.1 187.242 186.911 187.258C186.722 187.274 186.49 187.284 186.204 187.284V195.284C187.809 195.284 190.164 195.128 192.066 193.616C194.209 191.913 194.728 189.409 194.728 187.228H186.728ZM186.204 187.284H133.008V195.284H186.204V187.284ZM107.563 78.9071C101.301 72.8049 93.303 66.405 86.692 62.0513L82.292 68.7327C88.473 72.803 96.0753 78.8831 101.981 84.6369L107.563 78.9071ZM86.612 62C84.8956 60.9273 82.7652 60.144 80.592 60.144V68.144C80.9148 68.144 81.5924 68.2967 82.372 68.784L86.612 62ZM80.592 60.144C77.6949 60.144 74.467 61.3503 72.4791 64.1901L79.0329 68.7778C79.229 68.4977 79.7451 68.144 80.592 68.144V60.144ZM72.9276 63.6556C70.9769 65.6062 70.196 68.0831 70.196 70.384H78.196C78.196 69.8769 78.3511 69.5458 78.5844 69.3124L72.9276 63.6556ZM70.196 70.384C70.196 73.333 71.5602 76.1902 74.1612 77.9242L78.5988 71.2678C78.3918 71.1298 78.196 70.867 78.196 70.384H70.196ZM74.1267 77.9009C80.8182 82.4633 87.8273 88.1017 93.597 93.5678L99.099 87.7602C93.0127 81.9943 85.6698 76.0887 78.6333 71.2911L74.1267 77.9009ZM93.5196 93.4924C95.5116 95.4844 97.8859 96.692 100.716 96.692V88.692C100.426 88.692 99.9924 88.6516 99.1764 87.8356L93.5196 93.4924ZM100.716 96.692C103.71 96.692 106.278 95.1781 108.213 93.0278L102.267 87.6761C101.394 88.6459 100.842 88.692 100.716 88.692V96.692ZM108.068 93.1804C110.055 91.1938 110.8 88.6934 110.8 86.296H102.8C102.8 87.0186 102.609 87.3262 102.412 87.5236L108.068 93.1804ZM110.8 86.296C110.8 83.5715 109.678 81.0211 107.6 78.9436L101.944 84.6004C102.674 85.3309 102.8 85.9005 102.8 86.296H110.8ZM78.0129 100.658C76.3155 99.8096 74.4576 99.3 72.636 99.3V107.3C72.9984 107.3 73.6365 107.414 74.4351 107.814L78.0129 100.658ZM72.636 99.3C69.4579 99.3 66.7809 100.706 64.8325 103.141L71.0795 108.139C71.6271 107.454 72.0701 107.3 72.636 107.3V99.3ZM64.756 103.24C63.3955 105.054 62.552 107.125 62.552 109.54H70.552C70.552 109.147 70.6445 108.722 71.156 108.04L64.756 103.24ZM62.552 109.54C62.552 112.597 64.0271 115.57 67.1326 117.264L70.9634 110.24C70.7235 110.11 70.6572 110.003 70.6352 109.964C70.606 109.912 70.552 109.788 70.552 109.54H62.552ZM66.9783 117.175C73.4354 121.079 80.5704 126.538 86.1975 131.557L91.5225 125.587C85.6056 120.31 78.0766 114.537 71.1177 110.329L66.9783 117.175ZM86.226 131.582C88.089 133.212 90.5575 134.288 93.072 134.288V126.288C92.7785 126.288 92.127 126.116 91.494 125.562L86.226 131.582ZM93.072 134.288C96.0818 134.288 98.9945 132.884 100.987 130.145L94.5171 125.439C94.243 125.816 93.9763 126.015 93.764 126.123C93.5481 126.234 93.3179 126.288 93.072 126.288V134.288ZM100.762 130.426C102.39 128.566 103.312 126.41 103.312 124.048H95.312C95.312 124.156 95.2948 124.269 95.2356 124.414C95.1729 124.569 95.0383 124.819 94.7417 125.158L100.762 130.426ZM103.312 124.048C103.312 121.114 101.853 118.529 99.7855 116.69L94.4705 122.67C95.2106 123.327 95.312 123.862 95.312 124.048H103.312ZM99.8379 116.738C93.7067 111.091 85.5149 104.984 78.2251 100.773L74.2229 107.699C80.9731 111.6 88.6933 117.349 94.4181 122.622L99.8379 116.738ZM98.5489 145.369C97.357 144.972 96.1332 144.696 94.788 144.696V152.696C95.0028 152.696 95.339 152.732 96.0191 152.959L98.5489 145.369ZM94.788 144.696C92.886 144.696 91.0003 145.212 89.3694 146.372C87.7442 147.528 86.5976 149.161 85.8947 151.036L93.3853 153.844C93.6185 153.223 93.8758 152.984 94.0056 152.892C94.1297 152.804 94.35 152.696 94.788 152.696V144.696ZM85.877 151.084C81.1316 164.248 73.3251 180.292 65.4632 191.48L72.0088 196.08C80.3709 184.18 88.4764 167.464 93.403 153.796L85.877 151.084ZM65.4811 191.455C64.1575 193.308 63.644 195.394 63.644 197.212H71.644C71.644 196.846 71.7545 196.436 71.9909 196.105L65.4811 191.455ZM63.644 197.212C63.644 200.625 65.5794 203.606 68.0993 205.439L72.8047 198.969C71.8926 198.306 71.644 197.543 71.644 197.212H63.644ZM68.8274 205.859C70.3423 206.533 72.3849 207.296 74.508 207.296V199.296C74.1351 199.296 73.3697 199.123 72.0766 198.549L68.8274 205.859ZM74.508 207.296C77.8247 207.296 80.8955 205.74 82.8909 202.997L76.4211 198.291C75.9205 198.98 75.2473 199.296 74.508 199.296V207.296ZM82.9714 202.882C91.6553 190.017 99.5848 172.047 104.768 158.383L97.288 155.545C92.1752 169.025 84.5047 186.311 76.3406 198.406L82.9714 202.882ZM104.742 158.45C105.247 157.187 105.496 155.746 105.496 154.624H97.496C97.496 154.62 97.4959 154.656 97.4882 154.73C97.4808 154.801 97.4683 154.889 97.4496 154.987C97.41 155.195 97.3574 155.37 97.3141 155.478L104.742 158.45ZM105.496 154.624C105.496 150.362 102.809 147.021 98.7338 145.436L95.8342 152.892C96.6694 153.217 97.0643 153.588 97.243 153.826C97.4074 154.045 97.496 154.289 97.496 154.624H105.496Z" fill="white"/>
<defs>
<filter id="filter0_d_401_1063" x="0" y="0" width="276" height="276" filterUnits="userSpaceOnUse" color-interpolation-filters="sRGB">
<feFlood flood-opacity="0" result="BackgroundImageFix"/>
<feColorMatrix in="SourceAlpha" type="matrix" values="0 0 0 0 0 0 0 0 0 0 0 0 0 0 0 0 0 0 127 0" result="hardAlpha"/>
<feOffset dy="4"/>
<feGaussianBlur stdDeviation="5"/>
<feComposite in2="hardAlpha" operator="out"/>
<feColorMatrix type="matrix" values="0 0 0 0 0 0 0 0 0 0 0 0 0 0 0 0 0 0 0.25 0"/>
<feBlend mode="normal" in2="BackgroundImageFix" result="effect1_dropShadow_401_1063"/>
<feBlend mode="normal" in="SourceGraphic" in2="effect1_dropShadow_401_1063" result="shape"/>
</filter>
</defs>
</svg>
